<svg xmlns="http://www.w3.org/2000/svg" width="750" height="750"><path fill="#FEC60E" d="M375.938 84.082c4.89.917 9.803 1.638 14.726 2.356C415.96 90.153 415.96 90.153 423 93c1.914 2.622 2.012 3.717 1.875 7-1.187 4.07-3.044 5.963-6.751 8.063a240.506 240.506 0 0 1-7.249 3.437l-2.755 1.286A2244.507 2244.507 0 0 1 399 117l-6.781 3.145a3449.116 3449.116 0 0 1-25.043 11.5 922.109 922.109 0 0 0-12.363 5.73 551.23 551.23 0 0 1-16 7.188 295.684 295.684 0 0 0-16.891 7.972c-5.242 2.628-10.588 5.03-15.922 7.465a6438.8 6438.8 0 0 0-6.375 2.938l-3.285 1.515a2688.83 2688.83 0 0 0-10.152 4.734c-6.755 3.16-13.533 6.27-20.313 9.375l-3.162 1.45a8468.564 8468.564 0 0 1-12.72 5.816c-3.006 1.376-6.001 2.769-8.993 4.172l-3.3 1.516c-1.077.51-2.154 1.02-3.262 1.547l-2.88 1.347c-4.028 2.504-6.93 6.13-8.558 10.59-.475 2.863-.742 5.736-1 8.625-.429 4.66-.923 9.226-1.906 13.805-1.665 7.945-2.55 16.025-3.594 24.07-2.49 19.19-2.49 19.19-4.5 28.5-1.6 9.136-2.717 18.349-3.888 27.547-.665 5.194-1.407 10.355-2.3 15.515-1.414 9.052-2.66 18.801 2.188 26.938a207.388 207.388 0 0 0 4 5v2h2c1.34 1.363 1.34 1.363 2.938 3.313 3.918 4.626 8.18 8.841 12.511 13.074 2.374 2.432 4.433 4.96 6.551 7.613a264.38 264.38 0 0 0 5 5c2.63 2.6 5.252 5.206 7.875 7.813l2.066 2.04c3.96 3.941 7.704 7.99 11.349 12.221 3.283 3.697 6.873 7.09 10.43 10.52 1.463 1.433 2.876 2.916 4.28 4.406v2l1.813.813c2.185 1.186 3.6 2.283 5.187 4.187v2l3 1v2l4 2v2l3 1v2l3 1c2.188 1.938 2.188 1.938 4 4v2l3 1v2l4 2v2l1.625.75C312 458 312 458 315 460.063c11.227 7.25 30.652 2.184 43.187.91 3.437-.348 6.875-.685 10.313-1.02 2.221-.22 4.443-.442 6.664-.664l3.06-.3c6.107-.626 12.134-1.49 18.181-2.549 3.416-.58 6.836-.962 10.283-1.315 1.523-.164 3.046-.33 4.57-.496l2.645-.289a2758.3 2758.3 0 0 0 17.936-2.021c1.468-.17 2.937-.335 4.405-.497 13.668-1.513 26.667-3.563 35.756-14.822 5.411-8.465 8.468-18.64 12-28l1.605-4.227a868.509 868.509 0 0 0 6.957-19.023c1.9-5.361 3.983-10.61 6.227-15.836 1.195-2.876 2.3-5.777 3.385-8.696 1.543-4.144 3.126-8.273 4.701-12.406l1.074-2.82a2860.61 2860.61 0 0 1 5.613-14.617c4.401-11.43 8.6-22.933 12.625-34.5 1.76-5.045 3.62-9.987 5.88-14.832 1.078-2.36 2.04-4.755 2.995-7.168 4.554-11.49 4.554-11.49 5.938-12.875 2.67-.141 5.324-.042 8 0 2.041 3.459 2.512 6.619 3 10.582l.244 1.945c.26 2.094.509 4.19.756 6.286l.533 4.386c1.201 9.998 2.172 20.002 2.987 30.04 2.01 24.627 4.861 49.204 7.41 73.78.13 1.24.258 2.48.39 3.757l.729 7.014c4.116 39.675 4.116 39.675-6.049 58.21l-1.117 2.098c-3.454 5.99-8.094 10.955-12.883 15.902-.69.715-1.38 1.43-2.09 2.168-8.859 8.53-20.09 13.064-31.803 16.256a809.473 809.473 0 0 0-7.462 2.092 3810.56 3810.56 0 0 1-27.114 7.539 290493.935 290493.935 0 0 0-11.286 3.102c-6.33 1.745-12.644 3.521-18.933 5.406-7.762 2.322-15.582 4.411-23.41 6.502-9.587 2.567-19.153 5.21-28.714 7.872a330683.745 330683.745 0 0 1-11.49 3.199c-7.565 2.106-15.13 4.207-22.698 6.302l-3.464.962c-3.176.878-6.355 1.74-9.536 2.6l-3.136.874c-6.238 1.672-11.968 2.62-18.426 2.501l-2.477-.029c-12.55-.312-23.969-4.72-33.961-12.346v-2l-1.676-.738c-2.81-1.526-5.06-3.395-7.512-5.45-4.32-3.6-8.711-7.054-13.23-10.402L265 511v-2l-2.063-.625c-3.853-1.804-7.015-4.276-9.937-7.375v-2l-5-2v-2l-1.734-.813c-2.345-1.228-4.39-2.612-6.516-4.187l-2.14-1.563L236 487v-2l-1.734-.813c-2.345-1.228-4.39-2.612-6.516-4.187l-2.14-1.563L224 477v-2l-1.754-.824C216.362 471.096 211.66 466.66 207 462c-2.36-1.948-4.757-3.84-7.16-5.734-4.19-3.343-8.276-6.805-12.371-10.262-2.284-2.002-2.284-2.002-4.469-3.004v-2l-1.621-.672c-3.19-1.781-5.762-4.125-8.441-6.578l-1.604-1.41c-6.507-5.927-8.173-12.205-8.6-20.828-.07-1.751-.136-3.503-.199-5.254l-.233-5.872-.118-3.096c-.63-16.425-1.396-32.826-2.504-49.226-.581-8.81-.928-17.613-1.18-26.439-.237-8.254-.683-16.346-1.77-24.53-.997-8.123-1.078-16.292-1.281-24.466-.204-8.028-.575-15.963-1.512-23.942-.969-8.72-1.216-17.425-1.29-26.192a508.703 508.703 0 0 0-.063-4.564c-.186-11.077.705-18.438 8.416-26.931a94.257 94.257 0 0 1 4.688-4l2.386-1.938c3.029-2.135 6.12-3.89 9.372-5.656 2.785-1.533 5.523-3.131 8.261-4.746l3.03-1.783c2.04-1.204 4.079-2.41 6.117-3.617 6.037-3.548 12.145-6.804 18.43-9.891 3.54-1.785 6.914-3.774 10.279-5.869a251.455 251.455 0 0 1 12.652-7.344c6.008-3.252 11.898-6.69 17.785-10.156 7.597-4.472 15.241-8.816 23-13 7.397-4.01 14.746-8.095 22.063-12.25a2511.175 2511.175 0 0 1 23.558-13.206 758.934 758.934 0 0 0 10.766-6.056l2.16-1.235a588.47 588.47 0 0 0 3.978-2.299c12.506-7.148 22.53-6.514 36.413-3.872Z"/><path fill="#FEC60D" d="M122.793 305.988C125 307 125 307 127 309c.838 4.48 1.168 8.92 1.357 13.468l.163 3.796.164 4.095.18 4.332c.162 3.88.32 7.762.476 11.643.098 2.42.197 4.839.297 7.258.714 17.231 1.387 34.463 1.933 51.701l.13 4.062c.2 6.274.39 12.547.565 18.822C131.6 448.393 131.6 448.393 137 467v3l3 1c1.688 1.438 1.688 1.438 3 3v2l2 .625c2.531 1.16 4.21 2.202 6.375 3.875 3.621 2.798 7.366 5.361 11.188 7.875 7.997 5.268 15.837 10.755 23.668 16.267l2.874 2.014 2.568 1.807A48.448 48.448 0 0 0 198 512v2l2.155.778c3.063 1.316 5.609 2.914 8.372 4.777 1.04.697 2.08 1.394 3.15 2.113l3.26 2.207 3.249 2.184a3265.56 3265.56 0 0 1 6.01 4.05c2.03 1.369 4.086 2.7 6.158 4.005L233 536v2l2.074.723c3.52 1.536 6.58 3.558 9.738 5.715l1.975 1.332c5.437 3.676 10.841 7.403 16.243 11.131a975.84 975.84 0 0 0 14.875 10.028c7 4.65 13.929 9.405 20.86 14.158l2.755 1.886 2.471 1.695c1.96 1.358 1.96 1.358 4.009 2.332v2l2.203.352c3.672.85 6.608 2.516 9.906 4.296 9.145 4.276 17.63 4.989 27.641 4.977l2.207.006c15.882-.026 29.349-3.698 43.348-11.283 3.705-1.853 7.529-3.335 11.382-4.848 9.175-3.614 18.282-7.375 27.375-11.188l2-.835c6.328-2.646 12.638-5.313 18.868-8.184 4.314-1.983 8.662-3.702 13.132-5.293 5.371-1.959 10.431-4.156 15.504-6.805 3.688-1.81 7.52-3.18 11.364-4.62 7.441-2.835 14.754-6.003 22.097-9.079 4.377-1.833 8.76-3.644 13.153-5.438 6.002-2.45 11.941-4.994 17.828-7.71 6.275-2.827 12.645-5.439 18.994-8.094a7707.69 7707.69 0 0 0 9.853-4.133c16.09-6.757 32.191-13.482 48.303-20.184l2.236-.93 4.116-1.712c3.707-1.536 3.707-1.536 7.375-3.162 4.531-2.064 7.237-2.376 12.115-1.133 2.466 2.466 2.307 3.982 2.379 7.36l-.004 2.14.004 2.172c-.12 6.045-1.498 10.978-4.379 16.328h-2l-.813 1.813c-1.186 2.185-2.283 3.6-4.187 5.187h-2v2a127.024 127.024 0 0 1-6.75 4.438c-1.266.788-2.532 1.579-3.797 2.37l-1.822 1.133c-1.78 1.12-1.78 1.12-3.897 2.844C620 533 620 533 617 533v2c-1.695 1.191-1.695 1.191-4.125 2.563a317.101 317.101 0 0 0-12.75 7.812l-1.82 1.173a726.051 726.051 0 0 0-10.992 7.264c-5.149 3.453-10.376 6.767-15.625 10.063-5.784 3.632-11.525 7.309-17.188 11.125-7.209 4.855-14.552 9.485-21.91 14.11a1262.211 1262.211 0 0 0-12.09 7.702l-3.328 2.141c-2.139 1.38-4.274 2.766-6.406 4.156-.996.645-1.99 1.29-3.016 1.953l-2.64 1.723C503 608 503 608 501 608v2c-1.941 1.332-1.941 1.332-4.563 2.813-3.263 1.881-6.365 3.795-9.375 6.062C484 621 484 621 481 621v2c-1.941 1.332-1.941 1.332-4.563 2.813-3.111 1.8-6.117 3.6-9 5.75-2.51 1.846-5.072 3.388-7.812 4.875-5.707 3.099-11 6.74-16.332 10.44-23.751 16.248-49.246 24.594-78.043 19.372l-2.653-.475c-5.977-1.18-11.131-3.117-16.597-5.775-1.479-.682-2.958-1.363-4.438-2.043-8.566-4.01-17.018-8.17-25.35-12.649-4.755-2.554-9.556-4.989-14.4-7.37A245.623 245.623 0 0 1 287 630c-5.464-3.173-11.007-6.064-16.674-8.853-5.45-2.688-10.831-5.492-16.201-8.335-6.338-3.351-12.693-6.645-19.125-9.812a2971.307 2971.307 0 0 1-7.688-3.813l-2.05-1.02c-5.549-2.777-11.028-5.673-16.478-8.64-2.578-1.397-4.994-2.597-7.784-3.527v-2l-2.214-.36c-2.786-.64-4.843-1.53-7.356-2.87l-2.676-1.414-2.879-1.543-6.2-3.278-3.29-1.745a2429.892 2429.892 0 0 0-17.322-9.04l-3.492-1.813a965.363 965.363 0 0 0-17.883-9.062c-7.297-3.594-14.406-7.517-21.53-11.44a415.602 415.602 0 0 0-16.908-8.81C79.754 523.006 79.754 523.006 75 512c-1.511-12.754.625-26.074 1.86-38.806.731-7.56 1.386-15.103 1.703-22.694.271-6.463.884-12.813 1.707-19.228.775-6.19 1.127-12.358 1.386-18.588.235-4.091.778-8.132 1.317-12.192.991-7.565 1.49-15.101 1.86-22.719C86.802 338.622 86.802 338.622 96 330h2l1-3c1.938-2.188 1.938-2.188 4-4h2l.821-1.796c1.9-3.554 4.684-6.16 7.492-9.017l1.724-1.85c4.257-4.334 4.257-4.334 7.756-4.349ZM499.625 133.188l1.926.685c4.45 1.629 8.633 3.6 12.812 5.818 3.203 1.59 6.496 2.89 9.824 4.184a224.69 224.69 0 0 1 15.188 6.563c5.352 2.552 10.755 4.898 16.25 7.125a374.257 374.257 0 0 1 17.977 7.855c11.121 5.177 22.376 10.017 33.71 14.707C615.639 183.572 623.87 187.11 632 191l3.09 1.344c9.994 4.537 18.33 11.5 22.91 21.656.799 3.3 1.128 6.363 1.13 9.752l.006 2.793-.015 3.014-.009 3.185c-.066 11.592-.461 23.17-.912 34.753-.14 3.621-.27 7.243-.401 10.864l-.264 6.987-.117 3.241c-.16 4.022-.351 7.945-.922 11.932-.702 4.923-.806 9.832-.96 14.8-.08 2.25-.158 4.502-.237 6.753a7498.45 7498.45 0 0 0-.349 10.51c-.407 12.415-.967 24.738-2.259 37.095-.764 7.493-.998 14.939-1.097 22.466-.18 12.232-.64 24.443-1.67 36.634a371.817 371.817 0 0 0-.322 4.15c-.97 13.185-.97 13.185-6.602 18.071-6.636 4.13-15.202 6.37-23 5-3.814-1.925-6.443-4.416-7.87-8.48-.594-3.045-.985-6.06-1.317-9.145l-.454-3.468c-.316-2.42-.62-4.84-.912-7.262-.71-5.79-1.552-11.56-2.385-17.332l-.495-3.513c-1.221-8.62-2.59-17.21-4.005-25.8-2.156-13.115-4.028-26.258-5.825-39.426-1.12-8.191-2.296-16.365-3.642-24.522-1.423-8.795-2.523-17.638-3.65-26.475-.784-6.052-1.68-12.013-2.938-17.983-1.074-5.495-1.79-11.051-2.57-16.594l-.525-3.656c-.75-5.294-1.457-10.567-1.916-15.895-.544-5.675-2.124-9.825-5.496-14.449-2.287-1.819-2.287-1.819-4.941-3.36-.979-.596-1.957-1.194-2.965-1.809L565 215l-2.984-1.775a1235.303 1235.303 0 0 0-9.078-5.287 11519.528 11519.528 0 0 1-9.052-5.247 602.255 602.255 0 0 1-10.825-6.525c-2.145-1.3-2.145-1.3-5.061-2.166v-2l-1.748-.366c-2.356-.663-4.161-1.564-6.283-2.779l-2.39-1.361L515 186l-2.703-1.56a2490.2 2490.2 0 0 1-8.797-5.127l-3.184-1.86c-5.511-3.22-11.014-6.452-16.508-9.7-8.79-5.194-17.622-10.284-26.808-14.753v-2l-2.313-.313c-2.984-.763-4.044-1.092-5.687-3.687-.5-3.5-.5-3.5 0-7 5.2-3.875 11.36-4.772 17.563-6.188l3.384-.826c10.185-2.355 19.711-3.39 29.678.202Z"/><path fill="#ECA91C" d="m415.41 158.305 2.652 1.57 3.2 1.89c5.231 3.122 10.453 6.261 15.674 9.4a3339.018 3339.018 0 0 0 19.439 11.585l2.8 1.657a811.617 811.617 0 0 0 13.982 8.087c2.625 1.483 5.232 2.997 7.843 4.506l2.191 1.172C489.124 201.708 491.7 207.69 494 214c.734 3.372 1.236 6.691 1.645 10.117.423 3.437 1.366 6.566 2.355 9.883a312.167 312.167 0 0 1 4.57 23.672c.321 2.342.321 2.342 1.43 4.328.12 1.496.175 2.999.188 4.5l.042 2.406C504 271 504 271 502 273c-4.506-.25-7.744-.744-11-4v-2l-1.788-.812c-2.234-1.2-3.775-2.454-5.603-4.2l-1.888-1.787-1.971-1.889a350551400.337 350551400.337 0 0 0-5.994-5.666c-3.764-3.53-7.673-6.884-11.611-10.216-3.546-3.01-6.854-6.14-10.145-9.43-1.097-.904-2.202-1.8-3.313-2.688L446 228v-2l-1.594-.629c-3.43-1.954-6.06-4.595-8.906-7.309-1.134-1.073-2.27-2.145-3.406-3.214l-1.51-1.438c-3.324-3.227-3.324-3.227-7.575-4.563l-2.216.325-2.678.361L415 210c-1.877.248-3.753.496-5.63.742-2.905.384-5.808.785-8.71 1.185-16.882 2.324-33.778 4.524-50.683 6.669-1.503.191-3.006.385-4.509.58-3.594.467-7.188.908-10.791 1.294l-2.078.237c-1.856.212-3.713.41-5.57.607-4.216.955-6.06 2.78-8.506 6.237L317 230l-1.836 2.668c-2.104 3.08-4.133 6.203-6.164 9.332-1.618 2.442-3.247 4.877-4.875 7.313-2.56 3.836-5.118 7.675-7.668 11.519a1169.943 1169.943 0 0 1-14.297 21.04c-3.452 4.999-6.805 10.063-10.16 15.128-1.476 2.216-2.954 4.43-4.434 6.645a921.586 921.586 0 0 0-3.539 5.367A647.518 647.518 0 0 1 258 318l-1.41 2.098c-2.118 2.88-3.199 3.833-6.777 4.464L247 324c-2.431-3.646-2.304-6.348-2.25-10.563l.016-2.301c.096-5.907.643-11.69 1.381-17.547 1.06-8.655 1.556-17.347 2.067-26.049.359-5.714.852-11.309 1.794-16.958 1.313-7.988 1.631-16.02 1.946-24.102.08-1.963.183-3.924.288-5.886l.152-3.479c.72-3.706 2.005-5.422 4.606-8.115 2.277-1.3 2.277-1.3 4.938-2.313 1.06-.41 2.119-.822 3.21-1.246l1.828-.683a686.205 686.205 0 0 0 6.813-2.606 1389.812 1389.812 0 0 1 28.467-10.63 248.34 248.34 0 0 0 12.267-4.854c8.28-3.48 16.748-6.432 25.207-9.439 7.812-2.781 15.47-5.645 22.983-9.175 2.933-1.352 5.92-2.445 8.974-3.492a684.424 684.424 0 0 0 17.808-6.507c9.967-3.77 16.207-5.006 25.915.25Z"/><path fill="#CF8B26" d="m346.418 241.441 3.773.018 3.997.103c1.37.02 2.74.038 4.109.055 7.804.13 15.52.553 23.256 1.598 6.929.93 13.857 1.202 20.84 1.443 14.074.51 20.121 3.668 30.138 13.608C434 260 434 260 434 262l3 1v2l3 1c2.188 1.938 2.188 1.938 4 4v2l3 1c3.545 3.656 6.509 7.844 7 13-1.1 3.991-2.961 7.413-5 11l-1.61 2.926c-2.86 5.005-2.86 5.005-4.39 7.074h-2l-.234 1.57c-1.09 3.459-3.043 6.297-5.016 9.305l-1.16 1.816c-2.609 4.023-5.46 7.678-8.59 11.309-3.32-.573-4.794-1.479-7-4-.951-1.73-.951-1.73-1.754-3.617l-.9-2.09-.909-2.168-.92-2.145A427.52 427.52 0 0 1 410 306l-2-5h-50l-1 5c-.66 1.67-1.327 3.336-2 5a282.979 282.979 0 0 0-2 7l-.688 2.473a484.77 484.77 0 0 0-4.566 17.898c-.69 2.428-1.595 4.397-2.746 6.629l-.938 3.625C343 352 343 352 340 354h-3v-2l-1.684-.75c-2.74-1.479-4.972-3.276-7.378-5.25-2.605-2.13-5.136-4.132-7.938-6v-2l-1.684-.723c-2.847-1.57-4.985-3.516-7.378-5.714l-2.598-2.372c-5.82-5.45-5.82-5.45-6.34-9.191l-.438-3c.05-5.848 3.771-10.984 6.438-16l1.5-3.5c1.736-4.051 3.717-7.943 5.707-11.875 1.725-3.449 3.347-6.943 4.971-10.44 3.323-7.133 6.76-14.174 10.572-21.06l1.068-1.962c3.71-6.564 6.701-10.817 14.6-10.722Z"/><path fill="#D39325" d="m474.8 317.293 2.2.707c1.367 4.516.53 7.21-1.125 11.563l-.697 1.86c-1.85 4.885-3.877 9.693-5.92 14.499-1.864 4.562-3.488 9.203-5.121 13.851A489.624 489.624 0 0 1 460 371h-2l-.188 3.375c-.557 4.45-2.255 7.674-4.355 11.59-1.803 3.755-3.122 7.594-4.457 11.535-6.737 19.546-6.737 19.546-15 24.5-5.672 1.855-11.455 2.316-17.384 2.41l-2.38.06c-2.571.063-5.144.113-7.716.163l-5.454.126c-3.808.087-7.617.17-11.425.246-4.816.098-9.63.205-14.446.316-9.88.228-19.76.427-29.641.598-2.821.049-5.642.105-8.463.166-3.13.067-6.26.116-9.392.157l-2.53.066c-5.698.039-9.584-1.262-14.04-4.788-5.475-5.967-8.256-13.012-11.263-20.404-1.364-3.332-2.799-6.63-4.241-9.928l-.853-1.96c-2.73-6.226-5.638-12.365-8.576-18.495-1.073-2.24-2.137-4.486-3.196-6.733l-1.146-2.41-1.1-2.38-.994-2.127c-1.284-3.519-1.15-6.371-.76-10.083 2-2 2-2 4.277-2.367 3.625.489 5.419 2.001 8.286 4.242 3.062 2.37 5.893 4.54 9.437 6.125v2l1.719.328c2.64.778 4.477 1.911 6.781 3.422l2.887 1.875L316 365c2.54 1.667 5.082 3.331 7.625 4.993 1.767 1.155 3.53 2.313 5.293 3.475 7.562 4.95 12.88 8.057 22.02 7.907l2.76-.026c9.377-.183 18.74-.769 28.096-1.417 1.754-.12 3.508-.236 5.263-.347a609.96 609.96 0 0 0 7.502-.538l2.264-.137c6.683-.562 11.5-2.988 16.177-7.91h2l1-3c1.672-1.684 1.672-1.684 3.75-3.438l2.191-1.863a290.103 290.103 0 0 1 4.747-3.824c2.636-2.137 4.938-4.447 7.312-6.875 4.808-4.9 9.656-9.638 14.879-14.094 3.508-3.152 6.75-6.568 10.02-9.965C461 326 461 326 463 326v-2c1.793-1.762 1.793-1.762 4.188-3.688l2.355-1.949C472 317 472 317 474.801 317.293Z"/><path fill="#F0A10C" d="M413 157a259.22 259.22 0 0 1 7 4c-2.494 1.57-3.704 2.027-6.688 1.75L411 162l-1-2c-2.063.115-4.125.242-6.188.375l-3.48.21c-3.156.393-5.421 1.214-8.332 2.415-2.098.125-2.098.125-4.063 0-4.361-.04-4.361-.04-7.937 2l-1.25 1.938c-4.097 4.828-10.813 5.23-16.75 6.062l-2 2c-1.988.663-3.979 1.32-5.977 1.953-3.885 1.346-7.664 2.906-11.46 4.484l-2.25.931a749.78 749.78 0 0 0-9.352 3.94c-5.067 2.142-9.463 3.285-14.961 3.692v-2l-2-1c9.762-3.857 19.556-7.584 29.438-11.125 6.482-2.327 12.797-4.767 19.019-7.734 4.163-1.867 8.468-3.313 12.773-4.813 4.783-1.685 9.524-3.473 14.265-5.273 8.745-3.307 14.637-5.267 23.505-1.055Z"/><path fill="#CA800B" d="m360.98 295.88 2.632.006h2.972l3.232.016 3.292.005c3.485.005 6.97.018 10.454.03 2.357.006 4.713.01 7.069.014 5.79.011 11.58.028 17.369.049l1 5h-51l-1 5c-.5 1.777-1.021 3.548-1.563 5.313l-.816 2.675L354 316l-4-1v-5h2c-.235-.563-.47-1.127-.71-1.707-.29-2.293-.29-2.293 1.108-4.617l1.977-2.363 1.96-2.387c2.522-2.917 2.522-2.917 4.645-3.046Z"/><path fill="#EFA00C" d="M305 193v3l-2.438.938c-2.453.825-2.453.825-3.562 2.062l-3.438.438c-3.603.21-3.603.21-5.562 2.562a138.364 138.364 0 0 1-6 2c-9.155 3.134-9.155 3.134-18.125 6.75-2.32 1.008-4.406 1.756-6.875 2.25v2h-2l-2-4c5.885-4.078 11.81-6.627 18.563-8.938 1.948-.682 3.896-1.367 5.843-2.054l2.875-1.015c4.99-1.822 9.857-3.933 14.723-6.06 3.196-.995 4.838-.915 7.996.067Z"/><path fill="#D0880E" d="M442 404c2 3 2 3 2.063 5.688-1.666 5.193-5.27 9.487-9.856 12.484-6.688 2.51-14.232 2.038-21.266 2.144l-3.467.063c-3.637.065-7.274.125-10.911.183l-7.42.131c-6.048.107-12.095.209-18.143.307v-1l8-1 1-3h28v2c3.271-.139 6.542-.287 9.813-.438l2.814-.119 2.705-.127 2.491-.11c2.356-.14 2.356-.14 5.177-1.206l1-3c2.063-.688 2.063-.688 4-1v-3h3l-.063-3.375C441 406 441 406 442 404Z"/><path fill="#D1891B" d="M327 262c1.563 1.813 1.563 1.813 3 4-1 3-1 3-4 5-.606 2.362-.606 2.362-1 5-1.644 4.822-1.644 4.822-4 6l-1 2-1-1-1 4 2 1-4 2v5l-4 1 1 6-3 2c-1.296 1.066-1.296 1.066-1.063 3.563L309 310h-4l1 3c.203 2.191.203 2.191.25 4.563l.078 2.378L306 322l-3 2c-2.14-6.686-1.296-10.845 1.813-17l3.187-6 1.5-3.5c1.728-4.031 3.697-7.904 5.676-11.816 2.717-5.433 5.27-10.946 7.84-16.449l1.129-2.403 1.01-2.165C326 263 326 263 327 262Z"/><path fill="#FDC612" d="M126 312c1.661 2.932 2.28 5.153 2.427 8.511l.13 2.696.111 2.91.133 3.053c.091 2.144.177 4.287.26 6.431.124 3.2.267 6.399.414 9.598.579 13.667.384 27.15-.475 40.801-1.479-1.071-1.479-1.071-3-3-.36-3.056-.36-3.056-.34-6.858l-.002-2.1c.002-2.289.026-4.577.049-6.866a2408.282 2408.282 0 0 1 .087-17.295c.03-4.263.044-8.526.06-12.79.032-8.363.083-16.727.146-25.091Z"/><path fill="#CD8512" d="m349 318 3 1c-3.674 19.536-3.674 19.536-7 26l-.938 3.625C343 352 343 352 340 354h-3v-2l-1.672-.742c-2.804-1.515-5.109-3.369-7.578-5.383l-2.703-2.195L323 342l3-1c2.681 1.934 5.062 4.111 7.527 6.313 2.298 1.96 2.298 1.96 4.79 1.437L340 348l.148-1.898.227-2.477c.07-.812.14-1.624.21-2.46C341 339 341 339 343 337l1 4-.324-2.195c-.741-5.977-.945-9.525 2.324-14.805l.563-2.813L347 319l2-1Z"/><path fill="#ECA206" d="m376.563 209.875 2.115-.012c5.195.01 5.195.01 6.322 1.137a174.15 174.15 0 0 0 7.563-.438l2.154-.158c1.761-.13 3.522-.266 5.283-.404l-1 2a122.72 122.72 0 0 1-8.563 1.375l-2.725.368c-3.236.432-6.473.846-9.712 1.257l-2.014.256A6705.166 6705.166 0 0 1 346 219l-1-3-2-2c3.262-.974 6.227-1.134 9.625-1.125l2.914-.008C358 213 358 213 360 214c2.333.04 4.667.043 7 0v-3c3.05-1.525 6.221-1.144 9.563-1.125Z"/><path fill="#CF7B0C" d="M449 276c2.713 3.206 4.39 5.81 5 10-2.3 7.305-6.448 14.846-11 21h-2l-.313 1.688c-.829 2.789-2.03 4.926-3.687 7.312h-2c-.25-5.625-.25-5.625 2-9h2v-3h2l1-3 .875-1.688c3.285-6.751 4.443-11.489 4.035-18.992C447 278 447 278 449 276Z"/><path fill="#D38C12" d="M283.277 344.633c3.625.489 5.419 2.001 8.286 4.242 3.062 2.37 5.893 4.54 9.437 6.125v2l4 1c-2.928.976-4.956 1.082-8 1l1-3-2-1v2c-6.818-1.97-6.818-1.97-9-5v-3l-4 6 3 2-1 9c-4.052-4.052-6.25-9.724-6.375-15.438.41-3.897.658-5.285 4.652-5.93Z"/><path fill="#D98F28" d="m362.946 241.962 2.534.124 2.78.133 2.928.156 2.869.133c3.69.185 7.293.383 10.94.996 4.6.76 9.223.866 13.878 1.059l2.953.13c2.39.106 4.781.208 7.172.307v2c-5.532.025-11.064.043-16.595.055-1.879.005-3.758.012-5.636.02-2.714.013-5.427.018-8.14.023l-2.51.015c-5.448 0-10.714-.428-16.119-1.113 0-3.98 0-3.98 2.946-4.038Z"/><path fill="#EBA007" d="m453 231 2 1v2l4-1v4h4v4h3v3l3 1v2l1.715.75c2.655 1.452 4.622 3.202 6.848 5.25 2.434 2.234 4.68 4.162 7.437 6v2h4l1 2 3 1v3c3.269 3.178 4.322 4 9 4l-2-4h4c-.875 4.875-.875 4.875-2 6-4.496-.34-7.738-.738-11-4v-2l-1.788-.812c-2.234-1.2-3.775-2.454-5.603-4.2l-1.888-1.787-1.971-1.889a4281.69 4281.69 0 0 0-4.047-3.824l-1.947-1.841c-3.776-3.542-7.702-6.902-11.647-10.252-7.026-5.979-7.026-5.979-9.109-8.395v-3Z"/><path fill="#D18411" d="m344.012 241.707 2.295.03 2.38.076 2.417.04c1.965.036 3.93.09 5.896.147v4l-2.633.078c-9.027.304-9.027.304-16.367 4.922-1.863 2.6-1.863 2.6-3 5l-4-2c.933-1.44 1.872-2.877 2.813-4.313l1.582-2.425c4.016-5.659 4.016-5.659 8.617-5.555Z"/><path fill="#FEC517" d="M154 219h1c2.066 6.766 2.24 12.956 2.125 20l-.027 3.215c-.024 2.595-.056 5.19-.098 7.785l-1-2h-2c-.844-6.54-1.11-12.976-1.125-19.563l-.014-2.454c.015-5.86.015-5.86 1.139-6.983Z"/><path fill="#DC9026" d="M398 380v3c-3.304 1.101-5.514 1.031-8.98.879l-3.526-.147-3.682-.17-3.716-.158c-3.032-.13-6.064-.264-9.096-.404 7.79-4.152 20.5-5.833 29-3Z"/><path fill="#EB9F05" d="m306 240 2 3c-6.217 9.746-12.56 19.4-19 29-2-3-2-3-2-5h2l.75-1.625c1.557-2.957 3.284-5.672 5.25-8.375h2l.75-2.625c1.328-3.586 2.936-6.338 5.25-9.375h2l1-5Z"/><path fill="#FEC728" d="M563 407h1c2.99 10.037 4.3 19.649 2 30h-2l-1 3v-33Z"/><path fill="#FECB2D" d="M652 345h2c.1 6.093.173 12.003-1 18l-1 1a85.688 85.688 0 0 0-.563 4.563l-.253 2.503L651 373h-1c-.058-4.292-.094-8.583-.125-12.875l-.05-3.707-.02-3.535-.032-3.27C650 347 650 347 652 345Z"/><path fill="#FECA38" d="M340 599h19v3c-3.619 1.206-6.925 1.108-10.688 1.063l-2.126-.014c-1.729-.012-3.458-.03-5.186-.049l-1-4Z"/><path fill="#D28D0F" d="M382 420h28v2l-2.124-.048a1267.27 1267.27 0 0 0-9.563-.14l-3.342-.076-3.233-.029-2.967-.048c-3.24.399-5.069 1.564-7.771 3.341-2.749.36-5.21.142-8 0v-1l8-1 1-3Z"/><path fill="#EB9D08" d="m286 272 2 1c-6.232 9.406-12.54 18.748-19 28l-2-3 1.438-1.313c1.799-1.71 1.799-1.71 2.562-4.687l2-1 1.5-3.5c1.5-3.5 1.5-3.5 3.5-4.5l1-2h2l.25-2.25c.89-3.262 2.235-4.56 4.75-6.75Z"/><path fill="#ECA30D" d="M253 264c.058 4.292.094 8.583.125 12.875l.05 3.707.02 3.535.032 3.27C253 290 253 290 251 292l-1-16h-1v-11c3-1 3-1 4-1Z"/><path fill="#DB9D4F" d="M364.938 241.875c5.057.049 10.042.538 15.062 1.125v3h-20c0-4.526.239-3.976 4.938-4.125Z"/><path fill="#CE7F0B" d="M445 296c1.25 1.563 1.25 1.563 2 4-1.068 2.57-2.465 4.653-4 7h-2l-.313 1.688c-.829 2.789-2.03 4.926-3.687 7.312h-2c-.25-5.625-.25-5.625 2-9h2v-3h2l1-3c1.778-3.778 1.778-3.778 3-5Z"/><path fill="#FEBF01" d="m589 553-32 20-1-2c3.264-2.178 6.537-4.34 9.813-6.5l2.814-1.879 2.705-1.777 2.491-1.65C576 558 576 558 579 558v-2c6.625-4.125 6.625-4.125 10-3Z"/><path fill="#FECB39" d="M127 353c3.085 3.085 2.803 6.83 3 11-.026 3.863-.215 7.707-.438 11.563l-.158 3.056c-.128 2.46-.263 4.921-.404 7.381h-1c-.965-7.224-1.12-14.28-1.063-21.563l.014-3.345c.012-2.698.028-5.395.049-8.092Z"/><path fill="#CF8511" d="M431 318h3c-1.756 4.976-4.256 9.256-8 13-2.438-.236-3.753-.808-5.688-2.313-1.468-1.888-1.909-3.349-2.312-5.687 2.915 1.074 4.778 1.778 7 4l1-3 2 1 .938-2.375C430 320 430 320 431 318Z"/><path fill="#EFA007" d="M449 179a143.943 143.943 0 0 1 16 9c-2.709 1.354-5.01 1.065-8 1l-1-3h-6v-3h-2l1-4Z"/><path fill="#F1AA2E" d="M249 278h1v22h-4c-.22-5.51.068-9.77 2-15 .375-2.327.72-4.66 1-7Z"/><path fill="#D68E19" d="m311 362 2.125 1.355c5.61 3.575 11.229 7.13 16.875 10.645l-3 2c-2.468-1.152-4.048-2.048-6-4l-3-1-1-2h-4l1-2-4-1 1-4Z"/><path fill="#EEA006" d="m321 221 3 1-1.285 1.363c-4.412 4.839-7.892 9.883-11.235 15.512L310 241h-2v-4h3l.375-2.875C312 231 312 231 314 229l.438-2c.562-2 .562-2 3.562-4h3v-2Z"/><path fill="#D18A15" d="M450 384c1.912 3.824.909 7.986 0 12-1.224 3.053-2.582 6.032-4 9-1.625-1.5-1.625-1.5-3-4 .34-2.832 1.132-5.26 2-8l2 3 .148-1.863.227-2.45c.07-.8.14-1.6.21-2.425C448 387 448 387 450 384Z"/><path fill="#FECA3A" d="M345 464c-2.967 2.967-6.322 2.504-10.313 2.688l-2.302.142c-3.975.21-7.497.202-11.385-.83v-1c8.165-1.302 15.76-2.446 24-1Z"/><path fill="#EEA50B" d="M484 201c2.902.3 3.857.838 5.813 3.063 1.672 4.136 1.128 6.592.187 10.937l-2 1-.621-1.934-.817-2.504-.808-2.496c-.576-2.028-.576-2.028-1.754-3.066a99.984 99.984 0 0 1 0-5Z"/><path fill="#FEC420" d="M553 302h1l.184 2.152.254 2.786c.08.916.162 1.833.246 2.777.076 2.247.076 2.247 1.316 3.285.235 2.183.414 4.372.563 6.563l.253 3.628L557 326h-3c-.87-2.997-1.118-5.65-1.098-8.766l.01-2.695.025-2.789.014-2.836c.012-2.305.028-4.61.049-6.914Z"/><path fill="#FECB3F" d="M164 397c2 2 2 2 2.227 3.971-.01.786-.02 1.571-.032 2.38l-.02 2.579-.05 2.695-.027 2.719A843.207 843.207 0 0 1 166 418c-3.37-3.538-3.35-6.287-3.25-11.063.015-1.228.03-2.456.047-3.722C163 400 163 400 164 397Z"/><path fill="#ECA006" d="M490 217h4l1 9h-1l-1 6h-2c-1.323-4.96-1.089-9.911-1-15Z"/><path fill="#FEC41E" d="M492 131v2l-3.691.402-4.872.536-2.423.263c-4.687.517-9.35 1.104-14.014 1.799l3-1v-2c7.414-1.837 14.377-2.236 22-2Z"/><path fill="#FEC722" d="M657 221c2 2 2 2 2.266 5.02-.035 8.51-.68 16.587-2.266 24.98h-1a324.539 324.539 0 0 1 1-30Z"/><path fill="#D08C17" d="m296 385 1.313 1.813c1.541 2.186 1.541 2.186 3.375 3.5 2.1 2.7 1.498 5.395 1.312 8.687h-3l-5-12h2v-2Z"/><path fill="#DD9513" d="M474.75 317.313 477 318l1 5c-5.75 2-5.75 2-8 2v-3l-2-2c2.455-2.273 3.338-3.075 6.75-2.688Z"/><path fill="#FEBE01" d="m235 190 2 1-2.047 1.285c-7.81 5.135-11.263 8.846-13.203 18.153A237.828 237.828 0 0 0 221 215c-1.614-5.207-.966-9.963 1-15 3.625-4.308 7.598-8.2 13-10Z"/><path fill="#CB8600" d="M386 421c2.155-.249 2.155-.249 4.79-.074l2.85.166 2.985.22 3.008.186c2.457.154 4.912.321 7.367.502v2h-23l2-3Z"/><path fill="#ECA406" d="m266 301 1 3a80.235 80.235 0 0 1-4.188 7.063l-1.212 1.931c-2.14 3.291-3.788 5.735-7.6 7.006l1-3h2l.313-3.375L258 310l3-2 2-3a495.96 495.96 0 0 1 3-4Z"/><path fill="#FEC92E" d="M161 341c2 2 2 2 2.227 3.971-.01.786-.02 1.571-.032 2.38l-.02 2.579-.05 2.695-.027 2.719A843.207 843.207 0 0 1 163 362c-2-1-2-1-2.633-2.82-.586-3.483-.199-6.93.07-10.43l.159-2.258c.129-1.83.266-3.662.404-5.492Z"/><path fill="#FECA3C" d="M157 285h2c1.135 3.61 1.1 6.984 1.063 10.75l-.028 3.547L160 302l-3-2c-.547-3.223-.547-3.223-.75-7.063l-.234-3.847L156 286l1-1Z"/><path fill="#FBBA03" d="M135 549c4.515 1.709 8.806 3.794 13.125 5.938l2.168 1.052 2.09 1.037 1.887.93c1.882 1.135 3.242 2.435 4.73 4.043-4.788-.6-8.414-2.633-12.563-4.938l-3.94-2.152L139 553a245.634 245.634 0 0 0-4-2v-2Z"/><path fill="#FBBB01" d="M514 184c5.465 1.534 9.978 4.115 14.813 7l2.35 1.367c5.71 3.377 5.71 3.377 6.837 5.633-3.669-.706-6.705-2.277-10-4v-2l-1.707-.348c-2.57-.73-4.649-1.79-6.98-3.09l-2.387-1.308C515 186 515 186 514 184Z"/><path fill="#FDCB2B" d="M83 419h1c-.139 4.104-.287 8.208-.438 12.313l-.119 3.537-.127 3.388-.11 3.127C83 444 83 444 82 447h-3v-3h2l.184-3.691.254-4.872.119-2.423c.25-4.728.696-9.339 1.443-14.014Z"/><path fill="#FEC019" d="M386 88c8.267-.237 15.92.187 24 2-3.21 1.94-5.09 2.152-8.766 1.54-1.334-.214-1.334-.214-2.695-.43l-2.789-.485-2.836-.46A719.998 719.998 0 0 1 386 89v-1Z"/><path fill="#FEC82A" d="M432 454c-3.822 3.822-9.807 3.056-14.938 3.063A738.848 738.848 0 0 1 412 457v-1h6v-2c4.793-1.392 9.151-.687 14 0Z"/><path fill="#FEC72C" d="M550 276h2l2 17h-3c-.904-3.837-1.106-7.375-1.063-11.313l.028-3.238L550 276Z"/><path fill="#D18C2F" d="m331.5 423.313 2.09.107c5.167.337 5.167.337 7.41 2.58h-19v-2c3.067-1.533 6.167-.915 9.5-.688Z"/><path fill="#FED03A" d="M648 412h1c.745 6.874 1.182 13.17 0 20h-2c-.027-2.77-.047-5.542-.063-8.313l-.025-2.38-.01-2.295-.016-2.11C647 415 647 415 648 412Z"/><path fill="#DE962A" d="m368.75 380.938 2.422.027L373 381c-4.11 2.055-6.569 3.123-11.227 3.098l-3.125-.01-3.273-.026-3.297-.013A2489.57 2489.57 0 0 1 344 384v-1l3.36-.184 4.39-.253 2.21-.12c5.03-.297 9.766-1.58 14.79-1.505Z"/><path fill="#D37E02" d="m342.602 241.805 3.023.07 3.04.055L351 242v2l2 1c-2.124.221-4.249.427-6.375.625l-3.586.352L340 246l-2-2c2-2 2-2 4.602-2.195Z"/><path fill="#FCC923" d="M87 391c.08 2.124.14 4.25.188 6.375l.105 3.586L87 404l-3 2v-14c2-1 2-1 3-1Z"/><path fill="#D19132" d="m452 335 3 1-5 5-2.625 2.75C445 346 445 346 442 347c.54-3.823 2.069-5.274 5-7.688l2.188-1.824L451 336l1-1Z"/><path fill="#D1891F" d="M450 278c3.795 4.62 3.795 4.62 4 8-1.438 2.75-1.438 2.75-3 5l-2-1c-.027-1.625-.046-3.25-.063-4.875l-.035-2.742C449 280 449 280 450 278Z"/><path fill="#F1B343" d="M252 248h1c.027 1.937.046 3.875.063 5.813l.035 3.269C253 260 253 260 252 263h-3l1-11h2v-4Z"/><path fill="#FECE2C" d="M79 466h1c.054 2.604.094 5.208.125 7.813.017.737.034 1.475.05 2.236.036 3.863.019 5.66-2.175 8.951-.828-6.815-1.504-12.519 1-19Z"/><path fill="#D38C19" d="M470 321c-1.382 3.21-2.924 5.05-5.625 7.25l-1.914 1.578L461 331l-1-4 3-1v-2c2.561-2.296 3.48-3 7-3Z"/><path fill="#CD800E" d="m349 318 3 1-1 8h-3c-1.381-2.275-2.057-3.502-1.75-6.188C347 319 347 319 349 318Z"/><path fill="#EEA109" d="m471 192 10 5v2h-6v-3l-3 1c-2.188-.938-2.188-.938-4-2l3-3Z"/><path fill="#FBBC01" d="M496 173c3.992 1.478 7.572 3.362 11.25 5.5l3.203 1.844C513 182 513 182 514 184c-4.2-.905-7.58-2.903-11.25-5.063l-1.969-1.142c-1.596-.927-3.189-1.86-4.781-2.795v-2Z"/><path fill="#FEC935" d="M375 461c-3.632 2.421-5.383 2.21-9.688 2.125l-3.574-.055L359 463v-2c5.5-1.303 10.47-.71 16 0Z"/><path fill="#E5A64F" d="M386 381v2h-17c6.26-3.13 10.237-3.032 17-2Z"/><path fill="#CF830C" d="M302 313h4c.081 1.457.14 2.916.188 4.375l.105 2.46L306 322l-3 2c-1.176-3.674-1.074-7.17-1-11Z"/><path fill="#EBA104" d="m494 233 4 1v5h-1l-1 9h-1c-1.036-5.05-1.103-9.874-1-15Z"/><path fill="#E89E08" d="M437 217c5.143 3.26 10.004 6.36 14 11v2l-5-2v-2l-1.688-.688c-2.974-1.688-5.032-3.779-7.312-6.312v-2Z"/><path fill="#D28C10" d="M309 417h4l1 3 2 1v2l6 1v2c-5.272-.257-7.871-2.172-11.68-5.527C309 419 309 419 309 417Z"/><path fill="#FBC000" d="M288 528c5.969 2.865 11.542 6.273 17 10l-2 1c-1.988-.89-1.988-.89-4.313-2.25l-2.425-1.414c-.747-.44-1.493-.882-2.262-1.336l-3-1.625C289 531 289 531 288 528Z"/><path fill="#FCC831" d="M89 346h1c.027 2.208.046 4.417.063 6.625l.035 3.727c-.09 3.325-.461 6.388-1.098 9.648h-2l-1-5h2l1-15Z"/><path fill="#FEBE1A" d="M364 84c5.458-.111 10.615.083 16 1v2c-5.778.236-10.513-.132-16-2v-1Z"/><path fill="#FEC621" d="M166 409h1v15h-2l-2-10 2 1 1-6Z"/><path fill="#FECE39" d="M155 232h1c1.326 5.967 1.088 11.926 1 18l-1-2h-2l1-16Z"/><path fill="#FECC5C" d="M344 599c7.75-.125 7.75-.125 10 1v2h-11l1-3Z"/><path fill="#FECA32" d="M130 445h1l.375 3.125c.564 3.5 1.462 6.54 2.625 9.875v2h-3c-1.095-3.285-1.1-5.737-1.063-9.188l.028-3.292L130 445Z"/><path fill="#FBC421" d="m611 428 2 1c1.3 4.288 1.075 8.565 1 13l-1-4h-2c-1.125-6.625-1.125-6.625 0-10Z"/><path fill="#D48F0F" d="m302 405 3 1 1 3 2-2 1 7-3 1-4-10Z"/><path fill="#EBA105" d="M497 250h4v6h-1l-1 5c-2-2-2-2-2.195-4.164l.07-2.461.055-2.477L497 250Z"/><path fill="#D0861B" d="m410 246 4 1-2 3c-1.971.34-1.971.34-4.352.293l-2.578-.03c-.89-.024-1.779-.05-2.695-.076l-2.719-.04c-2.22-.036-4.437-.085-6.656-.147v-1h17v-3Z"/><path fill="#EBA202" d="M403 207c2.875-.188 2.875-.188 6 0l2 3c-1 1-1 1-2.848 1.098L402 211l1-4Z"/><path fill="#FEC72F" d="M560 374h1c1.427 5.307 2.4 9.539 1 15h-2v-15Z"/><path fill="#DEAC06" d="M382 420h4c-.813 1.938-.813 1.938-2 4-2.75.917-4.36 1.109-7.188 1.063L373 425v-1l8-1 1-3Z"/><path fill="#D18203" d="M418 323c4.419 1.35 6.343 3.261 9 7-1.75.75-1.75.75-4 1-3.005-2.318-4.461-4.227-5-8Z"/><path fill="#F1B53E" d="M249 278h1c.108 7.097-.061 13.96-1 21h-1c-.194-2.145-.38-4.291-.563-6.438l-.316-3.62L247 286l1-1c.368-2.328.702-4.662 1-7Z"/><path fill="#D18318" d="M327 262c1.563 1.813 1.563 1.813 3 4l-1 3c-3.063 1.188-3.063 1.188-6 2l4-9Z"/><path fill="#FDBE16" d="m328 597 12 2-1 3-12-2 1-3Z"/><path fill="#FCC62A" d="m596 314 1 13c-4-8-4-8-4-12 2-1 2-1 3-1Z"/><path fill="#FBC82B" d="M605 383c2 2 2 2 2.195 4.164l-.07 2.461-.055 2.477L607 394l-1-3h-2l-1-7 2-1Z"/><path fill="#CC8B0F" d="M471 327h2c1.074 5.957 1.074 5.957 1 8l-3 3v-11Z"/><path fill="#FBC821" d="m591 291 2 1v10l-2-1c-.45-2.031-.45-2.031-.688-4.5l-.261-2.469L590 292l1-1Z"/><path fill="#E9A00D" d="M423 206h3v2h3c2.188 1.875 2.188 1.875 4 4v2c-3.777-1.813-7.373-3.907-11-6l1-2Z"/><path fill="#D18813" d="m465 343 1 3h2a108.817 108.817 0 0 1-1 7l-2 1c-1.286-7.429-1.286-7.429 0-11Z"/><path fill="#F1A107" d="m245 317 4 4c2.57.648 2.57.648 5 1l-1 2c-2.875.188-2.875.188-6 0-2-3-2-3-2-7Z"/><path fill="#D08512" d="M409 300h3l2 5-3 2c-1.563-1.813-1.563-1.813-3-4l1-3Z"/><path fill="#E2A35A" d="M380 243v3l-14-1v-1a4272796437.826 4272796437.826 0 0 1 8.3-.781C377 243 377 243 380 243Z"/><path fill="#EFB041" d="M255 214h1c.077 4.516.102 8.59-1 13h-1c-.222-1.79-.427-3.582-.625-5.375l-.352-3.023L253 216l2-2Z"/><path fill="#F7A802" d="M406 154c-1.894 3.342-2.94 3.98-6.688 5.25L396 160v-3c3.374-2.603 5.77-3.363 10-3Z"/><path fill="#FBC001" d="M332 652c4.128.607 7.374 1.94 11 4l1 2c-4.755-.576-7.97-2.55-12-5v-1Z"/><path fill="#D38D16" d="M293 377c1.563 1.688 1.563 1.688 3 4-.313 2.75-.313 2.75-1 5h-2c-1.125-5.625-1.125-5.625 0-9Z"/><path fill="#D78B19" d="M333 377c2.36.936 4.696 1.933 7 3l-3 1v2h-3l-1-3-2-2 2-1Z"/><path fill="#FED23C" d="M162 349h1v13l-2-1a108.817 108.817 0 0 1-1-7h1l1-5Z"/><path fill="#D38F11" d="m341 349-1 5h-3v-2h-2v-2c3-1 3-1 6-1Z"/><path fill="#CB8312" d="m307 322 2 1 .438 2.438c.327 2.906.327 2.906 3.562 4.562v2c-3.795-1.491-5.61-3.757-8-7h2v-3Z"/><path fill="#D08213" d="m425 252 7 6c-3 2-3 2-5 2l1-4h-3v-4Z"/><path fill="#EA9801" d="M338 219c-3.062 1.784-5.22 2.229-8.75 2.125l-2.422-.055L325 221l1-2c4.3-.91 7.75-1.16 12 0Z"/><path fill="#EE9F10" d="m400 156-4 1v2c-2.957 1.478-5.742 1.06-9 1 4.374-2.916 7.705-4.303 13-4Z"/><path fill="#FFC621" d="M646 425h1v7h2v3h-2v5h-1v-15Z"/><path fill="#E0973C" d="M390 379v2l3 1-7 1v-2l-3-1c2.49-.687 4.379-1 7-1Z"/><path fill="#D18810" d="m468 334 2 1c.407 2.322.744 4.657 1 7l-3 1v-9Z"/><path fill="#FECC39" d="m554 316 2 4 1 1c.04 1.666.043 3.334 0 5h-3v-10Z"/><path fill="#D58B08" d="m473 320 5 2c-2.565 2.565-4.477 2.54-8 3 1.875-3.875 1.875-3.875 3-5Z"/><path fill="#D08114" d="M330 257h2l1 5-2 1-3-1c.875-3.875.875-3.875 2-5Z"/><path fill="#FEC825" d="m154 225 3 2c.293 2.602.293 2.602.188 5.625l-.083 3.04L157 238h-1c-.339-1.415-.67-2.832-1-4.25l-.563-2.39C154 229 154 229 154 225Z"/><path fill="#FEB801" d="m510 601 2 1-9 6-2-1 9-6Z"/><path fill="#D4880F" d="m452 379 4 2-3 6c-1.43-2.354-2.087-3.48-1.625-6.25L452 379Z"/><path fill="#CC8115" d="M345 327h1c.25 6.625.25 6.625-2 10-1.25-6.625-1.25-6.625 1-10Z"/><path fill="#CE8414" d="M447 289c2.152 3.228 2.2 4.284 2 8l-3 1c-1.033-2.788-1.045-3.868-.063-6.75L447 289Z"/><path fill="#F4AD3A" d="M493 223c2.097 2.36 2.97 3.546 3.188 6.75L496 232l-3-1v-8Z"/><path fill="#FEBF01" d="M306 157v3c-2.813 1.563-2.813 1.563-6 3l-3-1c2.947-1.8 5.888-3.502 9-5Z"/><path fill="#FDB70A" d="m246 546 8 5-2 1c-2.625-.938-2.625-.938-5-2v-2l-2-1 1-1Z"/><path fill="#FBB800" d="M344 658c3.95.551 7.35 1.39 11 3-2.17.955-3.563 1.144-5.824.398-1.744-.757-3.462-1.574-5.176-2.398v-1Z"/><path fill="#FECC48" d="M352 599h7v3h-5v-2l-2-1Z"/><path fill="#FEC018" d="M642 483h5l1 3h-7l1-3Z"/><path fill="#D49234" d="m390 379 8 1-1 2-7-1v-2Z"/><path fill="#D48E26" d="M411 377c-3.061 2.624-3.732 3-8 3v-2c3.067-1.862 4.597-2.215 8-1Z"/><path fill="#D38C0E" d="M290 370h1l1 9h-2c-1.125-5.625-1.125-5.625 0-9Z"/><path fill="#D98C0F" d="M306 359c2.188 1.438 2.188 1.438 4 3l-7 1v-3l3-1Z"/><path fill="#D59514" d="M284 357h2l-1 9-2-2c.375-3.625.375-3.625 1-7Z"/><path fill="#D18C14" d="m434 352 2 1c-.25 1.875-.25 1.875-1 4-2.063 1.25-2.063 1.25-4 2v-2h2l1-5Z"/><path fill="#D19115" d="M316 335c4.75 1.875 4.75 1.875 7 3v2l2 1-5-1v-2l-4-2v-1Z"/><path fill="#DD9642" d="M361 242c3.125-.188 3.125-.188 6 0-1.75 2.063-1.75 2.063-4 4-2.25-.25-2.25-.25-4-1l2-3Z"/><path fill="#F6AF24" d="M496 238c2.9 2.395 3.502 4.312 4 8h-2v-2h-2v-6Z"/></svg>